<?xml version="1.0" encoding="UTF-8"?>
<svg id="Layer_2" data-name="Layer 2" xmlns="http://www.w3.org/2000/svg" xmlns:xlink="http://www.w3.org/1999/xlink" viewBox="0 0 2671.03 3500">
  <defs>
    <style>
      .cls-1 {
        fill: #fefefe;
      }

      .cls-1, .cls-2, .cls-3, .cls-4, .cls-5, .cls-6 {
        stroke-width: 0px;
      }

      .cls-2 {
        fill: url(#linear-gradient);
      }

      .cls-3 {
        fill: #d9ab4f;
      }

      .cls-4 {
        fill: url(#linear-gradient-2);
      }

      .cls-5 {
        fill: url(#linear-gradient-3);
      }

      .cls-6 {
        fill: #1c3445;
      }
    </style>
    <linearGradient id="linear-gradient" x1="1135.06" y1="3243.32" x2="1162.78" y2="2981.27" gradientTransform="translate(-97.39 4094.01) scale(1.26 -1.26)" gradientUnits="userSpaceOnUse">
      <stop offset="0" stop-color="#b67c28"/>
      <stop offset="1" stop-color="#f2c45c"/>
    </linearGradient>
    <linearGradient id="linear-gradient-2" x1="1147.01" y1="473.51" x2="1135.77" y2="1592.75" gradientTransform="translate(-97.39 4094.01) scale(1.26 -1.26)" gradientUnits="userSpaceOnUse">
      <stop offset="0" stop-color="#906726"/>
      <stop offset="1" stop-color="#fcc962"/>
    </linearGradient>
    <linearGradient id="linear-gradient-3" x1="568.37" y1="1515.41" x2="1609.86" y2="2142.86" gradientTransform="translate(-97.39 4094.01) scale(1.26 -1.26)" gradientUnits="userSpaceOnUse">
      <stop offset="0" stop-color="#784b10"/>
      <stop offset="1" stop-color="#ffd77b"/>
    </linearGradient>
  </defs>
  <g id="Layer_1-2" data-name="Layer 1">
    <g>
      <path class="cls-2" d="m1303.54,332.51l-2.16-1.78c-9.68-7.06-21.97-10.78-32.1-17.63-39.58-26.76-67.55-71.4-76.71-117.9-8.95-45.4,1.34-93.72,26.97-131.96,18.95-28.28,53.75-55.75,87.64-62.52l3.97-.72c-37.52,31.25-62.35,63.29-66.6,113.26-3.72,43.8,9.65,85.95,38.31,119.24,27.01,31.38,71.39,55.1,112.95,57.85,33,2.19,76.13-9.22,101.41-30.9l20.16-21.05c-20.14,43.2-46.41,78.53-93.2,95.06-19.52,6.9-39.66,8.31-60.11,10.07-19.62-.94-35.7-1.94-53.82-10.39-3.66-1.71-1.27-1.16-6.71-.63Z"/>
      <path class="cls-3" d="m1325.08,1972.12l8.54-1.69c199.98,102.57,395.41,212.6,570.71,354.22,79.28,64.06,156.97,135.6,220.05,215.89,30.76,39.15,55.7,81.29,80.76,124.13-4.43,7-13.87,12.75-20.44,17.81-28.15,21.69-58.18,40.45-88.29,59.24l-51.35-60.91c-31.2-34.9-65.15-67.71-99.39-99.65-135.97-126.85-296.47-227.25-457.89-318.18l-157.91-87.91-110.8,59.69c-190.7,107.98-377.94,227.89-534.61,382.4-39.74,39.19-78.09,78-111.68,122.69-44.32-21.89-84.88-48.39-123.69-78.96l.47-3.17c2.94-9.03,12.52-20.42,18.23-28.03l57.56-71.65c214.81-258.3,505.39-432.8,799.71-585.93Z"/>
      <path class="cls-6" d="m1330.67,2301.02c50.89,24.93,100.47,56.48,149.09,85.64,91.67,54.97,180.44,112.35,266.5,175.84,88.27,65.11,179.84,140.45,241.75,231.97-22.38,13.92-48.13,24.25-72.32,34.78l-115.91,48.54-234.48,101.62c-80.15,36.91-160.35,73.69-230.89,127.34-45.56-30.62-90.55-60.92-138.62-87.59-164.82-91.47-345.48-155.73-519.44-227.46,24.45-32.68,55.6-63.38,84.53-92.21,166.55-165.96,368.1-281.24,569.78-398.47Z"/>
      <path class="cls-4" d="m543.29,3103.1l-1.8-.09c-6.95-1.91-14.84-7.04-21.44-10.26l-46.35-23.38c-135.02-70.14-272.83-172.23-354.83-302.89-122.92-195.85-143.89-441.09-93.16-663.49l1.8,69.73c3.24,48.99,13.84,97.53,28.61,144.27,76.77,242.97,264.44,418.94,481.99,540.52l101.08,51.95c21.56,9.98,44.1,18.15,65.18,29.1,62.58,22.22,123.39,51.43,184.07,78.36,152.46,67.69,314.26,135.8,441.61,245.74,10.46-7,19.15-17.05,29.05-24.93,16.63-13.25,35.46-24.59,53.65-35.59,53.41-32.29,109.46-59.85,165.55-87.1l374.84-168.18,116.99-57.8c54.36-30.55,109.37-60.69,161.25-95.4,99.41-66.52,195.67-146.27,267.38-242.69,60.57-81.44,105.92-179.74,133.29-277.33,15.2-54.2,25.89-112.71,25.79-169.15l2.58.31,2.42,22.09c8.44,48.23,8.14,100.9,8.22,149.85.17,99-8.07,202.6-35.12,298.18-22.95,81.11-61.57,160.13-110.13,228.89-74.89,106.04-175.8,179.61-285.71,245.82-69.85,39.51-142.65,72.86-216.88,103.32l-241.19,94.28-231.39,105.6c-76.24,38.92-158.41,83.29-216.65,147.18-47.59-48.49-101.71-83.34-160.72-116.53-62.08-34.93-126.03-65.5-191.14-94.27l-253.98-105.91-141.27-58.76c-14.12-6.54-30.8-12.64-43.57-21.42Z"/>
      <path class="cls-6" d="m1303.54,332.51c5.44-.53,3.05-1.08,6.71.63,18.12,8.45,34.21,9.45,53.82,10.39,5.91,23.17,11.61,45.75,21,67.85,31.07,73.15,82.21,129.05,141.65,180.53,32.24,27.93,65.49,54.7,103.56,74.33,58.44,30.12,121.9,50.3,181.13,79.09,60.3,29.32,119.86,65.77,174.99,103.92,265,183.36,446.86,460.79,504.49,778.12,60.26,331.88-9.74,680.22-202.09,958.21l-83.58-127.03c-.19-9.31,15.7-32.37,20.41-41.73l54.52-115.62c26.05-62.97,48.11-128.94,60.83-195.98,37.61-198.23,30.4-417.93-36.72-609.27-83.7-238.62-262.67-441.14-477.58-571.08-50.14-30.32-101.09-57.27-155.11-80.06-39.43-16.64-81.82-30.3-119.64-50.13-26.44-13.87-50.56-32.62-73.78-51.25-58.54-46.94-102.88-95.85-145.15-157.67-42.25,62.08-88.83,114.27-147.69,160.97-17.93,14.23-36.28,28.94-56.16,40.34-38.28,21.93-82.04,35.1-122.52,52.48-69.75,29.94-137.46,64.94-201.31,106.03-236.33,152.11-425.61,404.65-485.42,681.05-38.29,176.95-35.82,370.73,17.42,544.49,30.56,99.73,75.91,190.33,132.12,277.88l-93.5,119.7-69.61-104.47c-163.53-274.76-199.94-614.46-120.86-922.2,83.38-324.48,320.04-599.45,608.86-761.34,35.05-19.65,71.26-37.92,108.18-53.79,51.75-22.26,104.99-41.85,153.56-70.72,29.14-17.32,55.56-39.11,81.01-61.38,48.31-42.28,93.99-89.8,124.59-146.84,19.72-36.75,31.48-75.26,41.85-115.44Z"/>
      <path class="cls-5" d="m1243.09,975.87l5.25-6.39c30.27-36.14,64.25-73.7,82.31-118,13.36,25.97,27.24,51.93,44.83,75.35,43.5,57.92,104.86,108.51,161.71,152.83l225,166.02c153.52,119.82,277.9,270.53,308.44,468.33,9.4,60.87,7.3,123.52,8.01,184.96l-80.49-.31.25,359.46c-55.94-50.35-117.4-95.81-179.65-138.08-128.38-87.19-265.03-163.81-401.93-236.64l-59.14-30.82c-10.1-5-20.59-11.2-32.02-11.94-12.47,10.29-34.06,18.05-48.73,25.76l-133,70.54c-109.4,60.54-216.52,126.74-318.62,198.88-56.73,40.08-111.69,79.89-162.9,127.02l1.13-370.23-76.27.1-.03-4.51c-.22-80.32,1.65-159.56,19.21-238.4,44-197.51,193.43-331.09,349.81-445.85l127.64-90.66c56.44-42.49,109.18-87.5,159.2-137.43Z"/>
      <path class="cls-1" d="m1324.09,1550.91c39.06,4.09,71.06,18.24,95.86,49.3,17.15,21.47,26.99,50.6,23.51,78.06-4.31,34.07-21.53,61.48-48.53,82.29-20.07,15.47-44.39,24.77-69.87,24.34l-17.38-3.47c-32.87-8.49-59.99-27.53-77.16-57.04-17.71-30.46-18.81-56.8-10.27-90.19l12.73-23.35c21.83-34.82,52.01-50.59,91.1-59.94Z"/>
      <path class="cls-1" d="m1268.36,1005.63c29.31-28.37,42.75-75.17,62.3-110.1,42.5,121.67,142.78,203.71,231.6,291.53,42.68,42.2,83.45,85.31,118.12,134.52,71.74,101.81,115.61,226.46,127.61,350.19,6.13,63.23,3.71,128.65,4.04,192.16l-90.03-.31c.38-122.18,6.54-246.1-26.5-365.09-22.71-81.78-60.13-167.65-106.19-238.8-30.53-47.16-67.36-90.25-103.26-133.36-28.21-33.88-59.84-64.63-87.11-99.33-19.89-25.31-36.65-52.92-52-81.15-4.84-8.9-13.9-20.04-14.03-30.18-.06-4.46.19-4.42-1.58-9.11l-3.66,5.45c-11.12,19.12-19.21,39.68-29.79,59.07-13.56,24.86-31.86,48.49-49.15,70.84-29.39,38-63.82,72.77-95.29,109.12-41.93,48.45-81.93,101.44-111.69,158.26-20.38,40.43-39.95,80.37-54.6,123.36-47.86,140.48-45.94,290.07-44,436.42l-92.36.04c-.79-75.36.09-154.2,11.55-228.69,25.42-165.29,104.34-320.19,220.85-440.06,62.68-64.5,134.24-119.68,185.17-194.79Z"/>
    </g>
  </g>
</svg>