<?xml version="1.0" standalone="no"?>
<!DOCTYPE svg PUBLIC "-//W3C//DTD SVG 20010904//EN"
 "http://www.w3.org/TR/2001/REC-SVG-20010904/DTD/svg10.dtd">
<svg version="1.0" xmlns="http://www.w3.org/2000/svg"
 width="393.000000pt" height="227.000000pt" viewBox="0 0 393.000000 227.000000"
 preserveAspectRatio="xMidYMid meet">

<g transform="translate(0.000000,227.000000) scale(0.100000,-0.100000)"
fill="#000000" stroke="none">
<path d="M1912 2199 c-29 -32 -101 -91 -159 -131 -214 -146 -243 -259 -125
-490 2 -5 -4 -8 -13 -8 -9 0 -19 -9 -22 -20 -5 -18 -14 -20 -74 -20 -57 0 -70
-3 -79 -19 -5 -11 -10 -78 -10 -150 l0 -131 -60 0 -60 0 0 148 c0 134 -2 149
-19 162 -18 12 -18 16 -5 41 18 36 18 112 -1 148 -8 16 -39 45 -68 64 -30 20
-68 52 -84 71 l-31 34 -32 -34 c-17 -19 -55 -49 -83 -68 -29 -19 -60 -48 -69
-64 -22 -36 -23 -113 -4 -151 14 -25 13 -29 -10 -46 l-24 -18 0 -243 0 -244
-35 0 -36 0 1 582 c2 538 1 582 -15 591 -10 5 -26 18 -37 29 -20 20 -20 20
-46 -3 -15 -13 -31 -27 -35 -30 -5 -4 -8 -268 -7 -588 l1 -581 -36 0 -35 0 0
128 c0 114 -2 131 -19 146 -17 16 -18 20 -5 44 8 15 14 50 14 78 0 62 -18 88
-100 144 -32 22 -68 51 -79 66 l-21 27 -21 -27 c-11 -15 -47 -44 -79 -66 -80
-55 -100 -82 -100 -140 0 -26 5 -62 12 -80 10 -30 9 -35 -10 -48 -21 -14 -22
-21 -22 -213 l0 -199 -85 0 -85 0 0 -445 0 -445 1965 0 1965 0 0 445 0 445
-85 0 -85 0 0 199 c0 193 -1 199 -22 213 -20 14 -21 17 -8 47 19 46 17 114 -4
146 -10 14 -38 41 -64 58 -26 18 -64 49 -85 70 l-38 39 -20 -26 c-12 -15 -48
-45 -81 -67 -32 -22 -68 -55 -79 -72 -23 -38 -25 -110 -5 -149 13 -24 12 -28
-5 -44 -17 -15 -19 -32 -19 -146 l0 -128 -36 0 -35 0 2 581 2 581 -35 28 -34
28 -38 -32 -38 -31 2 -578 1 -577 -36 0 -35 0 0 244 0 243 -24 18 c-23 17 -24
21 -10 46 18 36 18 112 -1 148 -8 16 -37 43 -64 60 -27 18 -65 50 -85 71 l-34
38 -34 -35 c-18 -19 -55 -50 -83 -68 -27 -19 -58 -47 -67 -63 -22 -36 -23
-113 -4 -151 13 -25 13 -29 -5 -41 -17 -13 -19 -28 -19 -162 l0 -148 -60 0
-60 0 0 138 c0 94 -4 142 -12 150 -7 7 -40 12 -79 12 -58 0 -67 3 -72 20 -3
11 -13 20 -22 20 -9 0 -15 3 -13 8 69 134 83 212 54 298 -23 72 -65 116 -181
194 -56 37 -126 95 -156 128 l-54 60 -53 -59z"/>
</g>
</svg>
