<svg width="295" height="295" viewBox="0 0 295 295" fill="none" xmlns="http://www.w3.org/2000/svg">
<mask id="path-1-inside-1_116_216" fill="white">
<path fill-rule="evenodd" clip-rule="evenodd" d="M190.74 43.2928L147.553 0.106689L104.367 43.2928H43.2929V104.367L0.106735 147.553L43.2929 190.739V251.814H104.367L147.553 295L190.739 251.814H251.814V190.739L295 147.553L251.814 104.367V43.2928H190.74Z"/>
</mask>
<path fill-rule="evenodd" clip-rule="evenodd" d="M190.74 43.2928L147.553 0.106689L104.367 43.2928H43.2929V104.367L0.106735 147.553L43.2929 190.739V251.814H104.367L147.553 295L190.739 251.814H251.814V190.739L295 147.553L251.814 104.367V43.2928H190.74Z" fill="white"/>
<path d="M147.553 0.106689L156.039 -8.37859L147.553 -16.8639L139.068 -8.37859L147.553 0.106689ZM190.74 43.2928L182.254 51.7781L185.769 55.2928H190.74V43.2928ZM104.367 43.2928V55.2928H109.338L112.852 51.7781L104.367 43.2928ZM43.2929 43.2928V31.2928H31.2929V43.2928H43.2929ZM43.2929 104.367L51.7781 112.852L55.2929 109.338V104.367H43.2929ZM0.106735 147.553L-8.37855 139.068L-16.8638 147.553L-8.37855 156.039L0.106735 147.553ZM43.2929 190.739H55.2929V185.769L51.7781 182.254L43.2929 190.739ZM43.2929 251.814H31.2929V263.814H43.2929V251.814ZM104.367 251.814L112.853 243.329L109.338 239.814H104.367V251.814ZM147.553 295L139.068 303.485L147.553 311.971L156.039 303.485L147.553 295ZM190.739 251.814V239.814H185.769L182.254 243.329L190.739 251.814ZM251.814 251.814V263.814H263.814V251.814H251.814ZM251.814 190.739L243.329 182.254L239.814 185.769V190.739H251.814ZM295 147.553L303.485 156.039L311.971 147.553L303.485 139.068L295 147.553ZM251.814 104.367H239.814V109.338L243.329 112.852L251.814 104.367ZM251.814 43.2928H263.814V31.2928H251.814V43.2928ZM139.068 8.59197L182.254 51.7781L199.225 34.8076L156.039 -8.37859L139.068 8.59197ZM112.852 51.7781L156.039 8.59197L139.068 -8.37859L95.8819 34.8076L112.852 51.7781ZM43.2929 55.2928H104.367V31.2928H43.2929V55.2928ZM55.2929 104.367V43.2928H31.2929V104.367H55.2929ZM8.59202 156.039L51.7781 112.852L34.8076 95.8819L-8.37855 139.068L8.59202 156.039ZM51.7781 182.254L8.59202 139.068L-8.37855 156.039L34.8076 199.225L51.7781 182.254ZM55.2929 251.814V190.739H31.2929V251.814H55.2929ZM104.367 239.814H43.2929V263.814H104.367V239.814ZM156.039 286.515L112.853 243.329L95.882 260.299L139.068 303.485L156.039 286.515ZM182.254 243.329L139.068 286.515L156.039 303.485L199.225 260.299L182.254 243.329ZM251.814 239.814H190.739V263.814H251.814V239.814ZM239.814 190.739V251.814H263.814V190.739H239.814ZM286.515 139.068L243.329 182.254L260.299 199.225L303.485 156.039L286.515 139.068ZM243.329 112.852L286.515 156.039L303.485 139.068L260.299 95.8819L243.329 112.852ZM239.814 43.2928V104.367H263.814V43.2928H239.814ZM190.74 55.2928H251.814V31.2928H190.74V55.2928Z" fill="#13A795" mask="url(#path-1-inside-1_116_216)"/>
</svg>
